# File created by Blade
# Date/Time:  Thu Sep 25 17:43:48 2014
# Frame Rate: 120.000 fps
#------------------------------------------------------
:FULLY-SPECIFIED
:DEGREES
133
root -16.768533 33.352857 1.301715 -352.074552 -111.397548 6.286807
Spine -0.314624 2.909629 0.397476
Head -14.959485 14.910934 4.822942
LeftShoulder -5.390386 9.960693 18.178870
LeftArm 52.832926 27.013518 -65.475265
LeftForeArm 28.162901 -0.000000 63.930189
LeftHand -35.548623 -0.000000 3.093306
LeftHandThumb1 -26.253704 0.000000 33.147579
RightShoulder -13.810443 11.303556 -24.857215
RightArm -13.595159 -30.250278 93.556191
RightForeArm -16.143543 -0.000000 26.048633
RightHand -6.729853 -0.000000 4.003896
RightHandThumb1 -24.326973 -0.000000 -32.862282
LeftUpLeg -12.614774 -4.725401 -4.042552
LeftLeg 7.023360 -0.000000 -0.000000
LeftFoot -7.955637 18.851377 343.425892
LeftToeBase -2.441818 -0.000000 0.000000
RightUpLeg -35.668778 6.973400 -2.236405
RightLeg 35.977992 -0.000000 -0.000000
RightFoot -16.054810 -14.873355 -2.772145
RightToeBase -6.073135 -0.000000 0.000000
134
root -17.043306 33.317847 1.326069 -351.583734 -110.722421 5.214229
Spine 0.087263 2.282430 0.299100
Head -14.646498 14.845178 4.827652
LeftShoulder -5.202601 10.071721 18.091970
LeftArm 53.116638 27.322725 -65.647759
LeftForeArm 28.019910 0.000000 64.237487
LeftHand -35.374104 -0.000000 3.073962
LeftHandThumb1 -26.253704 0.000000 33.147579
RightShoulder -13.876692 11.350540 -24.991103
RightArm -13.586604 -30.121031 92.961328
RightForeArm -16.559813 0.000000 26.174622
RightHand -6.694212 -0.000000 4.700653
RightHandThumb1 -24.326973 -0.000000 -32.862282
LeftUpLeg -11.597298 -4.329202 -4.876227
LeftLeg 6.864848 -0.000000 -0.000000
LeftFoot -7.662504 18.268267 344.212400
LeftToeBase -2.895445 -0.000000 0.000000
RightUpLeg -35.675818 6.072189 -2.195168
RightLeg 34.573614 -0.000000 -0.000000
RightFoot -15.574507 -13.805963 -2.267743
RightToeBase -5.618610 -0.000000 0.000000
135
root -17.318740 33.273197 1.347773 -351.092784 -110.028289 4.158132
Spine 0.432171 1.748238 0.197432
Head -14.254303 14.738116 4.922904
LeftShoulder -5.042972 10.132379 17.936623
LeftArm 53.431725 27.780301 -65.575689
LeftForeArm 27.377271 -0.000000 64.420591
LeftHand -35.212809 -0.000000 3.237398
LeftHandThumb1 -26.253704 0.000000 33.147579
RightShoulder -13.989460 11.365567 -25.133475
RightArm -13.648283 -30.190916 92.468534
RightForeArm -16.883300 -0.000000 26.233711
RightHand -6.520579 -0.000000 5.092375
RightHandThumb1 -24.326973 -0.000000 -32.862282
LeftUpLeg -10.568571 -4.011524 -5.655160
LeftLeg 6.670887 -0.000000 -0.000000
LeftFoot -7.586746 17.876611 344.778050
LeftToeBase -3.418239 -0.000000 0.000000
RightUpLeg -35.624734 5.127694 -2.097606
RightLeg 33.179911 -0.000000 -0.000000
RightFoot -14.694489 -13.080218 -2.606738
RightToeBase -5.911867 -0.000000 0.000000
136
root -17.595262 33.225601 1.368759 -350.556555 -109.252405 3.119902
Spine 0.676584 1.224472 0.109391
Head -13.824990 14.536422 5.066134
LeftShoulder -5.031153 10.205619 17.681229
LeftArm 53.929617 28.465088 -65.264751
LeftForeArm 26.710622 -0.000000 64.256134
LeftHand -34.958331 -0.000000 3.826327
LeftHandThumb1 -26.253704 0.000000 33.147579
RightShoulder -14.080947 11.370639 -25.237941
RightArm -13.816480 -30.300880 92.022411
RightForeArm -17.133380 -0.000000 26.297661
RightHand -6.372588 0.000000 5.544671
RightHandThumb1 -24.326973 -0.000000 -32.862282
LeftUpLeg -9.577616 -3.888200 -6.362361
LeftLeg 6.511317 -0.000000 -0.000000
LeftFoot -7.745671 17.528722 345.143266
LeftToeBase -2.732702 -0.000000 0.000000
RightUpLeg -35.563451 4.144764 -1.979932
RightLeg 31.782444 -0.000000 -0.000000
RightFoot -13.718998 -12.352195 -3.170397
RightToeBase -6.455070 -0.000000 0.000000
137
root -17.876106 33.176266 1.380500 -350.140650 -108.529793 2.216211
Spine 0.853504 0.786401 0.057743
Head -13.325961 14.247695 5.273894
LeftShoulder -5.098149 10.375634 17.323233
LeftArm 54.677834 29.230310 -64.535063
LeftForeArm 25.906095 -0.000000 63.872481
LeftHand -34.662717 -0.000000 4.241696
LeftHandThumb1 -26.253704 0.000000 33.147579
RightShoulder -14.118358 11.207492 -25.274775
RightArm -13.865641 -30.413870 91.521278
RightForeArm -17.648466 -0.000000 26.298787
RightHand -6.246995 -0.000000 6.136550
RightHandThumb1 -24.326973 -0.000000 -32.862282
LeftUpLeg -8.516151 -3.797213 -6.976897
LeftLeg 6.235189 -0.000000 -0.000000
LeftFoot -7.737611 17.445012 345.933554
LeftToeBase -3.339008 -0.000000 0.000000
RightUpLeg -35.406509 3.134614 -1.753518
RightLeg 30.233279 -0.000000 -0.000000
RightFoot -12.774146 -11.734056 -3.631557
RightToeBase -6.069460 -0.000000 0.000000
138
root -18.152537 33.128320 1.386828 -349.715188 -107.908275 1.375650
Spine 0.942632 0.456445 -0.006336
Head -12.879640 13.851640 5.485915
LeftShoulder -5.269590 10.441390 16.939702
LeftArm 55.435116 30.172892 -63.615134
LeftForeArm 25.272913 -0.000000 63.332405
LeftHand -34.517874 -0.000000 4.324628
LeftHandThumb1 -26.253704 0.000000 33.147579
RightShoulder -14.153046 11.041181 -25.243234
RightArm -13.944429 -30.514612 91.031980
RightForeArm -17.925931 -0.000000 26.303390
RightHand -6.273856 -0.000000 6.499781
RightHandThumb1 -24.326973 -0.000000 -32.862282
LeftUpLeg -7.463030 -3.804001 -7.522706
LeftLeg 5.826319 -0.000000 -0.000000
LeftFoot -7.884708 17.486210 346.471058
LeftToeBase -3.120133 -0.000000 0.000000
RightUpLeg -35.235785 1.959095 -1.418221
RightLeg 28.569827 -0.000000 -0.000000
RightFoot -11.789041 -10.777964 -4.003765
RightToeBase -5.890921 -0.000000 0.000000
139
root -18.437735 33.081079 1.391846 -349.358360 -107.289187 0.667995
Spine 0.897340 0.200623 0.047033
Head -12.384863 13.349748 5.585730
LeftShoulder -5.435466 10.544517 16.462063
LeftArm 56.250605 31.217596 -62.532865
LeftForeArm 24.873490 -0.000000 62.649824
LeftHand -34.415463 0.000000 4.247189
LeftHandThumb1 -26.253704 0.000000 33.147579
RightShoulder -14.225277 10.800472 -25.273897
RightArm -14.074451 -30.731881 90.603277
RightForeArm -18.052986 -0.000000 26.305195
RightHand -6.346251 0.000000 6.749810
RightHandThumb1 -24.326973 -0.000000 -32.862282
LeftUpLeg -6.427303 -4.088720 -7.982881
LeftLeg 5.430141 -0.000000 -0.000000
LeftFoot -8.183380 17.756282 346.695935
LeftToeBase -2.845660 -0.000000 0.000000
RightUpLeg -35.075003 0.743887 -1.026385
RightLeg 26.976402 -0.000000 -0.000000
RightFoot -10.813096 -9.783449 -4.619778
RightToeBase -5.738315 -0.000000 0.000000
140
root -18.717437 33.031692 1.377792 -349.209644 -106.664876 0.184697
Spine 0.863302 0.017324 0.114791
Head -11.966017 12.807929 5.747799
LeftShoulder -5.592059 10.637507 16.107372
LeftArm 57.040061 32.302637 -61.484071
LeftForeArm 24.663224 -0.000000 61.868205
LeftHand -33.987624 -0.000000 3.749721
LeftHandThumb1 -26.253704 0.000000 33.147579
RightShoulder -14.336714 10.572469 -25.230555
RightArm -14.300822 -30.993773 90.221485
RightForeArm -18.193823 -0.000000 26.405336
RightHand -6.556063 0.000000 6.906997
RightHandThumb1 -24.326973 -0.000000 -32.862282
LeftUpLeg -5.355386 -4.329675 -8.313573
LeftLeg 4.958958 -0.000000 -0.000000
LeftFoot -8.466143 17.853566 346.980681
LeftToeBase -2.554519 -0.000000 0.000000
RightUpLeg -34.843960 -0.420278 -0.512534
RightLeg 25.216043 -0.000000 -0.000000
RightFoot -10.016292 -8.697987 -4.503090
RightToeBase -5.843033 -0.000000 0.000000
141
root -19.000962 32.976334 1.354026 -349.207614 -106.111800 -0.095827
Spine 0.716966 0.011032 0.225837
Head -11.493420 12.170467 5.887981
LeftShoulder -5.674479 10.760990 15.779985
LeftArm 57.806061 33.431201 -60.369429
LeftForeArm 24.553699 0.000000 61.070390
LeftHand -33.784817 -0.000000 3.072841
LeftHandThumb1 -26.253704 0.000000 33.147579
RightShoulder -14.513748 10.274712 -25.268404
RightArm -14.582794 -31.298811 89.993326
RightForeArm -18.317416 -0.000000 26.392294
RightHand -6.298610 0.000000 6.852930
RightHandThumb1 -24.326973 -0.000000 -32.862282
LeftUpLeg -4.261219 -4.371950 -8.576867
LeftLeg 4.367248 -0.000000 -0.000000
LeftFoot -8.615122 17.936462 347.314524
LeftToeBase -2.854676 -0.000000 0.000000
RightUpLeg -34.635002 -1.465613 0.053239
RightLeg 23.456309 -0.000000 -0.000000
RightFoot -9.324268 -7.621599 -4.827922
RightToeBase -5.910092 -0.000000 0.000000
